<svg xmlns="http://www.w3.org/2000/svg" width="1240" height="800" viewBox="0 0 1240 800">
<style>text{font-family:Segoe UI,Arial,sans-serif;fill:#172033}.small{font-size:12px}.tiny{font-size:10px}.label{font-size:10px;font-weight:700;fill:#777872}.muted{fill:#5c667a}.title{font-size:28px;font-weight:650}.h{font-size:17px;font-weight:650}.mono{font-family:Consolas,monospace}.bold{font-weight:700}.btn{font-size:14px;font-weight:650}.num{font-size:28px;font-weight:650}</style>
<rect x="0" y="0" width="1240" height="800" rx="0" fill="#f3f5f8" stroke="#f3f5f8" stroke-width="1"/>
<rect x="0" y="0" width="1240" height="88" rx="0" fill="#fcfcfa" stroke="#d7d7d1" stroke-width="1"/>
<rect x="14" y="10" width="68" height="68" rx="9" fill="#252525" stroke="#111111" stroke-width="1"/>
<text x="30" y="40" class="bold" style="fill:#fff;font-size:13px;">WING</text>
<text x="30" y="58" class="bold" style="fill:#e5c600;font-size:13px;">SYNC</text>
<text x="102" y="37" class="bold" style="font-size:19px;">WING</text>
<text x="160" y="37" class="bold" style="fill:#e5c600;font-size:19px;">SYNC</text>
<text x="104" y="57" class="label" style="">FOH / MONITOR LINK</text>
<rect x="224" y="22" width="790" height="44" rx="7" fill="#f3f3ef" stroke="#deded8" stroke-width="1"/>
<text x="238" y="40" class="label" style="">CONSOLEFLOW</text>
<text x="238" y="58" class="bold" style="font-size:13px;">FOH ↦ STAGE</text>
<line x1="470" y1="26" x2="470" y2="62" stroke="#d4d4ce" stroke-width="1"/>
<text x="492" y="40" class="label" style="">SESSION STATUS</text>
<circle cx="505" cy="54" r="4" fill="#17835c" stroke="#17835c"/>
<text x="517" y="58" class="bold" style="font-size:13px;">Ready for dry run</text>
<line x1="750" y1="26" x2="750" y2="62" stroke="#d4d4ce" stroke-width="1"/>
<text x="773" y="40" class="label" style="">MODE</text>
<rect x="773" y="45" width="210" height="22" rx="11" fill="#ebeef2" stroke="#ebeef2" stroke-width="1"/>
<text x="878" y="60" class="bold" style="fill:#5c667a;font-size:10px;text-anchor:middle;">LIVE OFF · DRY RUN</text>
<rect x="1028" y="25" width="76" height="38" rx="6" fill="#be3b43" stroke="#be3b43" stroke-width="1"/>
<text x="1066" y="49" class="btn" style="fill:#fff;font-size:14px;text-anchor:middle;">Stop</text>
<rect x="1112" y="25" width="114" height="38" rx="6" fill="#e5c600" stroke="#e5c600" stroke-width="1"/>
<text x="1169" y="49" class="btn" style="fill:#121212;font-size:14px;text-anchor:middle;">Start dry run</text>
<rect x="0" y="88" width="188" height="670" rx="0" fill="#f8f8f5" stroke="#d7d7d1" stroke-width="1"/>
<text x="23" y="120" class="label" style="">WORKSPACE</text>
<text x="24" y="140" class="bold" style="fill:#a58c00;font-size:16px;">●</text>
<text x="51" y="140" class="" style="font-size:14px;">Status</text>
<rect x="9" y="170" width="170" height="43" rx="6" fill="#fff2a8" stroke="#e4c400" stroke-width="1"/>
<text x="24" y="194" class="bold" style="fill:#a58c00;font-size:16px;">↔</text>
<text x="51" y="194" class="bold" style="font-size:14px;">Synchronization</text>
<text x="24" y="248" class="bold" style="fill:#a58c00;font-size:16px;">≡</text>
<text x="51" y="248" class="" style="font-size:14px;">Activity</text>
<text x="24" y="302" class="bold" style="fill:#a58c00;font-size:16px;">⚙</text>
<text x="51" y="302" class="" style="font-size:14px;">Settings</text>
<rect x="10" y="648" width="168" height="82" rx="6" fill="#efefea" stroke="#d7d7d1" stroke-width="1"/>
<text x="21" y="672" class="label" style="">LIVE AUDIO SAFETY</text>
<text x="21" y="693" class="bold" style="font-size:11px;">Dry run and readback first</text>
<text x="21" y="715" class="tiny" style="fill:#5c667a;">v1.0.0 · DEMO</text>
<rect x="188" y="88" width="1052" height="58" rx="0" fill="#fff" stroke="#dce1e8" stroke-width="1"/>
<text x="216" y="123" class="h" style="">Configure synchronization</text>
<text x="216" y="140" class="tiny" style="fill:#5c667a;">Scopes and channel mapping</text>
<rect x="0" y="758" width="1240" height="42" rx="0" fill="#20211f" stroke="#111211" stroke-width="1"/>
<rect x="16" y="769" width="4" height="20" rx="2" fill="#e5c600" stroke="#e5c600" stroke-width="1"/>
<text x="30" y="784" class="label" style="fill:#e5c600;">NEXT STEP</text>
<text x="218" y="176" class="title" style="">Channel mapping</text>
<text x="218" y="204" class="small" style="fill:#5c667a;">Input channels 1–40 and AUX channels 1–8 are mapped as separate series.</text>
<rect x="218" y="231" width="960" height="500" rx="10" fill="#ffffff" stroke="#dce1e8" stroke-width="1"/>
<text x="238" y="266" class="h" style="">Channel mapping</text>
<text x="238" y="288" class="small" style="fill:#5c667a;">Validate active source and target channels before saving.</text>
<rect x="733" y="254" width="92" height="38" rx="6" fill="#e8eef5" stroke="#dce1e8" stroke-width="1"/>
<text x="779.0" y="278" class="btn" style="fill:#172033;font-size:14px;text-anchor:middle;">Fill 1 → 1</text>
<rect x="833" y="254" width="78" height="38" rx="6" fill="#e8eef5" stroke="#dce1e8" stroke-width="1"/>
<text x="872.0" y="278" class="btn" style="fill:#172033;font-size:14px;text-anchor:middle;">Add row</text>
<rect x="919" y="254" width="78" height="38" rx="6" fill="#e8eef5" stroke="#dce1e8" stroke-width="1"/>
<text x="958.0" y="278" class="btn" style="fill:#172033;font-size:14px;text-anchor:middle;">Add AUX</text>
<rect x="1005" y="254" width="145" height="38" rx="6" fill="#e8eef5" stroke="#dce1e8" stroke-width="1"/>
<text x="1077.5" y="278" class="btn" style="fill:#172033;font-size:14px;text-anchor:middle;">Remove selection</text>
<rect x="238" y="311" width="920" height="38" rx="0" fill="#fafafa" stroke="#dce1e8" stroke-width="1"/>
<text x="248" y="336" class="bold" style="">Active</text>
<text x="323" y="336" class="bold" style="">AUX</text>
<text x="383" y="336" class="bold" style="">Source channel</text>
<text x="543" y="336" class="bold" style="">Target channel</text>
<text x="703" y="336" class="bold" style="">Channel</text>
<text x="933" y="336" class="bold" style="">Validation</text>
<rect x="238" y="349" width="920" height="38" rx="0" fill="#fff" stroke="#e9ecf1" stroke-width="1"/>
<text x="248" y="374" class="small" style="">☑</text>
<text x="323" y="374" class="small" style="">☐</text>
<text x="383" y="374" class="small" style="">1</text>
<text x="543" y="374" class="small" style="">1</text>
<text x="703" y="374" class="small" style="">Input 1 → Input 1</text>
<text x="933" y="374" class="small" style="">Ready</text>
<rect x="238" y="387" width="920" height="38" rx="0" fill="#fff" stroke="#e9ecf1" stroke-width="1"/>
<text x="248" y="412" class="small" style="">☑</text>
<text x="323" y="412" class="small" style="">☐</text>
<text x="383" y="412" class="small" style="">2</text>
<text x="543" y="412" class="small" style="">2</text>
<text x="703" y="412" class="small" style="">Input 2 → Input 2</text>
<text x="933" y="412" class="small" style="">Ready</text>
<rect x="238" y="425" width="920" height="38" rx="0" fill="#fff" stroke="#e9ecf1" stroke-width="1"/>
<text x="248" y="450" class="small" style="">☑</text>
<text x="323" y="450" class="small" style="">☐</text>
<text x="383" y="450" class="small" style="">3</text>
<text x="543" y="450" class="small" style="">3</text>
<text x="703" y="450" class="small" style="">Input 3 → Input 3</text>
<text x="933" y="450" class="small" style="">Ready</text>
<rect x="238" y="463" width="920" height="38" rx="0" fill="#fff" stroke="#e9ecf1" stroke-width="1"/>
<text x="248" y="488" class="small" style="">☑</text>
<text x="323" y="488" class="small" style="">☐</text>
<text x="383" y="488" class="small" style="">AUX 1</text>
<text x="543" y="488" class="small" style="">AUX 1</text>
<text x="703" y="488" class="small" style="">AUX 1 → AUX 1</text>
<text x="933" y="488" class="small" style="">Ready</text>
<rect x="238" y="501" width="920" height="38" rx="0" fill="#fff" stroke="#e9ecf1" stroke-width="1"/>
<text x="248" y="526" class="small" style="">☐</text>
<text x="323" y="526" class="small" style="">☐</text>
<text x="383" y="526" class="small" style="">—</text>
<text x="543" y="526" class="small" style="">—</text>
<text x="703" y="526" class="small" style="">Inactive row</text>
<text x="933" y="526" class="small" style="">Ignored</text>
<text x="238" y="574" class="bold" style="fill:#17835c;">Configuration is valid. Save before starting.</text>
<rect x="978" y="551" width="160" height="38" rx="6" fill="#0b78d0" stroke="#0b78d0" stroke-width="1"/>
<text x="1058.0" y="575" class="btn" style="fill:#fff;font-size:14px;text-anchor:middle;">Save configuration</text>
<text x="105" y="784" class="small" style="fill:#ecece8;">Next step: test the two connections and identities.</text>
</svg>