<svg xmlns="http://www.w3.org/2000/svg" width="1240" height="800" viewBox="0 0 1240 800">
<style>text{font-family:Segoe UI,Arial,sans-serif;fill:#172033}.small{font-size:12px}.tiny{font-size:10px}.label{font-size:10px;font-weight:700;fill:#777872}.muted{fill:#5c667a}.title{font-size:28px;font-weight:650}.h{font-size:17px;font-weight:650}.mono{font-family:Consolas,monospace}.bold{font-weight:700}.btn{font-size:14px;font-weight:650}.num{font-size:28px;font-weight:650}</style>
<style>text{fill:#F3F4F6}.label,.muted{fill:#AEB5C2}[fill="#f3f5f8"]{fill:#111316}[fill="#fcfcfa"],[fill="#f8f8f5"]{fill:#16191D}[fill="#f3f3ef"],[fill="#efefea"],[fill="#e8eef5"],[fill="#ebeef2"],[fill="#fafafa"],[fill="#f1f2ee"]{fill:#20242A}rect[fill="#fff"],rect[fill="#ffffff"]{fill:#1A1D22}[fill="#fff2a8"]{fill:#3C350B}[fill="#e2f4ed"]{fill:#153528}[fill="#e3f1fb"]{fill:#152B3D}[fill="#fff3e2"]{fill:#382715}[fill="#fde8e9"]{fill:#3B1D22}[fill="#dfe4ec"]{fill:#0D0F12}[fill="#17835c"]{fill:#43C18D}[fill="#0b78d0"]{fill:#4EA8DE}[fill="#be3b43"]{fill:#FF6B72}[fill="#b46b08"],[fill="#d57a00"]{fill:#F0B35A}[fill="#a58c00"]{fill:#E5C600}[stroke="#d7d7d1"],[stroke="#deded8"],[stroke="#d4d4ce"],[stroke="#dce1e8"],[stroke="#b8c1ce"],[stroke="#e9ecf1"],[stroke="#d9dad4"],[stroke="#687386"],[stroke="#111111"]{stroke:#343941}[stroke="#e4c400"]{stroke:#D8BB16}[stroke="#f0c67f"]{stroke:#8A5B24}[style*="fill:#172033"]{fill:#F3F4F6!important}[style*="fill:#5c667a"]{fill:#AEB5C2!important}[style*="fill:#17835c"]{fill:#43C18D!important}[style*="fill:#0b78d0"]{fill:#4EA8DE!important}[style*="fill:#be3b43"]{fill:#FF6B72!important}[style*="fill:#b46b08"]{fill:#F0B35A!important}[style*="fill:#a58c00"]{fill:#E5C600!important}[style*="fill:#76531f"]{fill:#FFD499!important}[style*="fill:#ecece8"]{fill:#F3F4F6!important}</style>
<rect x="0" y="0" width="1240" height="800" rx="0" fill="#f3f5f8" stroke="#f3f5f8" stroke-width="1"/>
<rect x="0" y="0" width="1240" height="88" rx="0" fill="#fcfcfa" stroke="#d7d7d1" stroke-width="1"/>
<text x="14" y="37" class="bold" style="font-size:19px;">WING</text>
<text x="72" y="37" class="bold" style="fill:#e5c600;font-size:19px;">SYNC</text>
<text x="16" y="57" class="label" style="">FOH / MONITOR LINK</text>
<rect x="156" y="22" width="858" height="44" rx="7" fill="#f3f3ef" stroke="#deded8" stroke-width="1"/>
<text x="170" y="40" class="label" style="">CONSOLEFLOW</text>
<text x="170" y="58" class="bold" style="font-size:13px;">FOH ↦ STAGE</text>
<line x1="436" y1="26" x2="436" y2="62" stroke="#d4d4ce" stroke-width="1"/>
<text x="458" y="40" class="label" style="">SESSION STATUS</text>
<circle cx="471" cy="54" r="4" fill="#17835c" stroke="#17835c"/>
<text x="483" y="58" class="bold" style="font-size:13px;">Blocked</text>
<line x1="750" y1="26" x2="750" y2="62" stroke="#d4d4ce" stroke-width="1"/>
<text x="773" y="40" class="label" style="">MODE</text>
<rect x="773" y="45" width="210" height="22" rx="11" fill="#ebeef2" stroke="#ebeef2" stroke-width="1"/>
<text x="878" y="60" class="bold" style="fill:#5c667a;font-size:10px;text-anchor:middle;">BLOCKED · NO WRITES</text>
<rect x="1028" y="25" width="76" height="38" rx="6" fill="#be3b43" stroke="#be3b43" stroke-width="1"/>
<text x="1066" y="49" class="btn" style="fill:#fff;font-size:14px;text-anchor:middle;">Stop</text>
<rect x="1112" y="25" width="114" height="38" rx="6" fill="#e5c600" stroke="#e5c600" stroke-width="1"/>
<text x="1169" y="49" class="btn" style="fill:#121212;font-size:14px;text-anchor:middle;">Start dry run</text>
<rect x="0" y="88" width="1240" height="74" fill="#20242A" stroke="#343941"/>
<text x="20" y="113" class="label">SAFE WORKFLOW</text><text x="20" y="134" class="tiny muted">Follow each stage in order</text>
<line x1="304" y1="125" x2="392" y2="125" stroke="#343941" stroke-width="2"/><line x1="518" y1="125" x2="606" y2="125" stroke="#343941" stroke-width="2"/><line x1="732" y1="125" x2="820" y2="125" stroke="#343941" stroke-width="2"/><line x1="946" y1="125" x2="1034" y2="125" stroke="#343941" stroke-width="2"/>
<circle cx="198" cy="125" r="15" fill="#3B1D22" stroke="#FF6B72"/><text x="198" y="130" class="bold" text-anchor="middle">1</text><text x="222" y="121" class="bold small">Setup</text><text x="222" y="138" class="tiny" fill="#FF6B72">Blocked</text>
<circle cx="412" cy="125" r="15" fill="#252A31" stroke="#AEB5C2"/><text x="412" y="130" class="bold" text-anchor="middle">2</text><text x="436" y="121" class="bold small">Connection</text><text x="436" y="138" class="tiny muted">Upcoming</text>
<circle cx="626" cy="125" r="15" fill="#252A31" stroke="#AEB5C2"/><text x="626" y="130" class="bold" text-anchor="middle">3</text><text x="650" y="121" class="bold small">Dry run</text><text x="650" y="138" class="tiny muted">Upcoming</text>
<circle cx="840" cy="125" r="15" fill="#252A31" stroke="#AEB5C2"/><text x="840" y="130" class="bold" text-anchor="middle">4</text><text x="864" y="121" class="bold small">Review</text><text x="864" y="138" class="tiny muted">Upcoming</text>
<circle cx="1054" cy="125" r="15" fill="#252A31" stroke="#AEB5C2"/><text x="1054" y="130" class="bold" text-anchor="middle">5</text><text x="1078" y="121" class="bold small">Live</text><text x="1078" y="138" class="tiny muted">Upcoming</text>
<g transform="translate(0 74)">
<rect x="0" y="88" width="188" height="670" rx="0" fill="#f8f8f5" stroke="#d7d7d1" stroke-width="1"/>
<text x="23" y="120" class="label" style="">WORKSPACE</text>
<rect x="9" y="116" width="170" height="43" rx="6" fill="#fff2a8" stroke="#e4c400" stroke-width="1"/>
<text x="24" y="140" class="bold" style="fill:#a58c00;font-size:16px;">●</text>
<text x="51" y="140" class="bold" style="font-size:14px;">Status</text>
<text x="24" y="194" class="bold" style="fill:#a58c00;font-size:16px;">↔</text>
<text x="51" y="194" class="" style="font-size:14px;">Synchronization</text>
<text x="24" y="248" class="bold" style="fill:#a58c00;font-size:16px;">≡</text>
<text x="51" y="248" class="" style="font-size:14px;">Activity</text>
<text x="24" y="302" class="bold" style="fill:#a58c00;font-size:16px;">⚙</text>
<text x="51" y="302" class="" style="font-size:14px;">Settings</text>
<rect x="10" y="648" width="168" height="82" rx="6" fill="#efefea" stroke="#d7d7d1" stroke-width="1"/>
<text x="21" y="672" class="label" style="">LIVE AUDIO SAFETY</text>
<text x="21" y="693" class="bold" style="font-size:11px;">Dry run and readback first</text>
<text x="21" y="715" class="tiny" style="fill:#5c667a;">v1.0.0 · DEMO</text>
<rect x="188" y="88" width="1052" height="58" rx="0" fill="#fff" stroke="#dce1e8" stroke-width="1"/>
<text x="216" y="123" class="h" style="">Status</text>
<text x="216" y="140" class="tiny" style="fill:#5c667a;">Safe one-way synchronization with readback</text>
<rect x="0" y="758" width="1240" height="42" rx="0" fill="#20211f" stroke="#111211" stroke-width="1"/>
<rect x="16" y="769" width="4" height="20" rx="2" fill="#e5c600" stroke="#e5c600" stroke-width="1"/>
<text x="30" y="784" class="label" style="fill:#e5c600;">NEXT STEP</text>
<text x="218" y="180" class="title" style="">System status</text>
<text x="218" y="207" class="small" style="fill:#5c667a;">Live overview of both consoles, the cache, and the synchronization flow.</text>
<rect x="218" y="230" width="960" height="70" rx="10" fill="#ffffff" stroke="#dce1e8" stroke-width="1"/>
<rect x="218" y="230" width="960" height="70" rx="10" fill="#fff3e2" stroke="#f0c67f" stroke-width="1"/>
<circle cx="249" cy="265" r="15" fill="#d57a00" stroke="#d57a00"/>
<text x="249" y="271" class="bold" style="fill:#fff;font-size:18px;text-anchor:middle;">!</text>
<text x="276" y="258" class="bold" style="">Writes paused: identity must be rechecked</text>
<text x="276" y="280" class="small" style="fill:#76531f;">Resolve the console/network issue, test both connections again, and review a fresh preview before resuming.</text>
<rect x="218" y="318" width="960" height="70" rx="10" fill="#ffffff" stroke="#dce1e8" stroke-width="1"/>
<rect x="238" y="336" width="34" height="34" rx="17" fill="#e2f4ed" stroke="#e2f4ed" stroke-width="1"/>
<text x="255" y="360" class="bold" style="fill:#5c667a;font-size:20px;text-anchor:middle;">3</text>
<text x="286" y="346" class="bold" style="">3/4 setup steps ready</text>
<text x="286" y="368" class="small" style="fill:#5c667a;">Next step: start a dry run and review the preview.</text>
<rect x="1058" y="334" width="100" height="38" rx="6" fill="#e8eef5" stroke="#dce1e8" stroke-width="1"/>
<text x="1108.0" y="358" class="btn" style="fill:#172033;font-size:14px;text-anchor:middle;">Open setup</text>
<rect x="218" y="413" width="355" height="215" rx="10" fill="#ffffff" stroke="#dce1e8" stroke-width="1"/>
<text x="238" y="441" class="label" style="">FOH · SOURCE</text>
<text x="238" y="468" class="bold" style="font-size:20px;">DEMO-FOH</text>
<rect x="468" y="435" width="84" height="24" rx="12" fill="#e2f4ed" stroke="#e2f4ed" stroke-width="1"/>
<text x="510" y="452" class="bold" style="fill:#17835c;font-size:11px;text-anchor:middle;">Connected</text>
<line x1="238" y1="485" x2="553" y2="485" stroke="#dce1e8" stroke-width="1"/>
<text x="238" y="508" class="small" style="fill:#5c667a;">IP address</text>
<text x="343" y="508" class="mono" style="">127.10.0.10</text>
<text x="238" y="527" class="small" style="fill:#5c667a;">Model</text>
<text x="343" y="527" class="small" style="">wing-fullsize</text>
<text x="238" y="546" class="small" style="fill:#5c667a;">Firmware</text>
<text x="343" y="546" class="small" style="">3.1-demo</text>
<text x="238" y="565" class="small" style="fill:#5c667a;">Last data</text>
<text x="343" y="565" class="small" style="">stale</text>
<text x="238" y="584" class="small" style="fill:#5c667a;">Serial number</text>
<text x="343" y="584" class="mono" style="">DEMO-FOH-0001</text>
<text x="238" y="603" class="small" style="fill:#5c667a;">Identity</text>
<text x="343" y="603" class="small" style="">Saved pin · offline not confirmed</text>
<rect x="823" y="413" width="355" height="215" rx="10" fill="#ffffff" stroke="#dce1e8" stroke-width="1"/>
<text x="843" y="441" class="label" style="">STAGE · TARGET</text>
<text x="843" y="468" class="bold" style="font-size:20px;">DEMO-STAGE</text>
<rect x="1073" y="435" width="84" height="24" rx="12" fill="#fde8e9" stroke="#fde8e9" stroke-width="1"/>
<text x="1115" y="452" class="bold" style="fill:#be3b43;font-size:11px;text-anchor:middle;">Lost</text>
<line x1="843" y1="485" x2="1158" y2="485" stroke="#dce1e8" stroke-width="1"/>
<text x="843" y="508" class="small" style="fill:#5c667a;">IP address</text>
<text x="948" y="508" class="mono" style="">127.10.0.11</text>
<text x="843" y="527" class="small" style="fill:#5c667a;">Model</text>
<text x="948" y="527" class="small" style="">wing-rack</text>
<text x="843" y="546" class="small" style="fill:#5c667a;">Firmware</text>
<text x="948" y="546" class="small" style="">3.1-demo</text>
<text x="843" y="565" class="small" style="fill:#5c667a;">Last data</text>
<text x="948" y="565" class="small" style="">stale</text>
<text x="843" y="584" class="small" style="fill:#5c667a;">Serial number</text>
<text x="948" y="584" class="mono" style="">DEMO-MON-0001</text>
<text x="843" y="603" class="small" style="fill:#5c667a;">Identity</text>
<text x="948" y="603" class="small" style="">Saved pin · offline not confirmed</text>
<text x="698" y="508" class="mono" style="fill:#be3b43;font-size:28px;text-anchor:middle;">────▶</text>
<text x="698" y="538" class="bold" style="fill:#be3b43;font-size:13px;text-anchor:middle;">BLOCKED</text>
<rect x="218" y="653" width="300" height="100" rx="10" fill="#ffffff" stroke="#dce1e8" stroke-width="1"/>
<text x="238" y="681" class="small" style="fill:#5c667a;">Verified live writes</text>
<text x="238" y="715" class="num" style="">0</text>
<text x="238" y="737" class="tiny" style="fill:#5c667a;">written and read back</text>
<rect x="538" y="653" width="300" height="100" rx="10" fill="#ffffff" stroke="#dce1e8" stroke-width="1"/>
<text x="558" y="681" class="small" style="fill:#5c667a;">Preview / planned</text>
<text x="558" y="715" class="num" style="">1</text>
<text x="558" y="737" class="tiny" style="fill:#5c667a;">no console write</text>
<rect x="858" y="653" width="300" height="100" rx="10" fill="#ffffff" stroke="#dce1e8" stroke-width="1"/>
<text x="878" y="681" class="small" style="fill:#5c667a;">Blocked by safety</text>
<text x="878" y="715" class="num" style="">1</text>
<text x="878" y="737" class="tiny" style="fill:#5c667a;">not executed</text>
<text x="30" y="784" class="label" style="fill:#e5c600;">NEXT STEP</text>
<text x="105" y="784" class="small" style="fill:#ecece8;">Resolve the blocking fault before any writes can continue.</text>
</g>
</svg>